# xmcd
#
# Track frame offsets:
#	150
#	20678
#	36956
#	54253
#	85737
#	104494
#	125062
#	145530
#	180200
#	198005
#	239259
#
# Disc length: 3603 seconds
#
# Revision: 0
# Processed by: cddbd v1.5.2PL0 Copyright (c) Steve Scherf et al.
# Submitted via: audiograbber 1.83.01
#
DISCID=870e110b
DTITLE=Martin Nonstatic - Nebulae Live At The Planetarium
DYEAR=2016
DGENRE=Electronic
TTITLE0=Into The Nebulae
TTITLE1=Bowed Thoughts
TTITLE2=Sea Surfaces
TTITLE3=Granite
TTITLE4=Saint Germain
TTITLE5=Out Of Silence
TTITLE6=Edelbitter
TTITLE7=Inside Eyesight
TTITLE8=Kurukshetra
TTITLE9=Distance B
TTITLE10=Tabula Rasa
EXTD=
EXTT0=
EXTT1=
EXTT2=
EXTT3=
EXTT4=
EXTT5=
EXTT6=
EXTT7=
EXTT8=
EXTT9=
EXTT10=
PLAYORDER=
